{"title":"Ozzy - After Hours 4-28-81(From 30 Years After The Blizzard DVD)","uid":8658449,"size":987799189,"categoryP":"video","categoryS":"music_videos","magnet":"?xt=urn:btih:e935537f81b9baa7f50e05e3438af3a91164d2bf&amp;dn=Ozzy+-+After+Hours+4-28-81%28From+30+Years+After+The+Blizzard+DVD%29&amp;tr=udp%3A%2F%2Ftracker.openbittorrent.com%3A80&amp;tr=udp%3A%2F%2Fopen.demonii.com%3A1337&amp;tr=udp%3A%2F%2Ftracker.coppersurfer.tk%3A6969&amp;tr=udp%3A%2F%2Fexodus.desync.com%3A6969","seeders":1,"leechers":0,"uploader":"chilinvilin","files":2,"time":1373265961,"description":"Ozzy - After Hours 4-28-81(From 30 Years After The Blizzard DVD)\n\nOzzy Osbourne - Randy Rhoads - Rudy Sarzo - Tommy Aldridge\n\n&quot;After Hours&quot; TV Studio\nRochester, New York\nApril 28, 1981\n\nThis is the amazing &quot;After Hours&quot; show that was filmed in Rochester, New York on 05/08/1981. This show was performed for a couple of dozen people in a small room, but it was filmed with three cameras and has fantastic sound and video. Because of the multiple cameras there are close ups and different shots of all the players so you can really see everything.\n\n\n1 - I Don't Know\n2 - Crazy Train\n3 - Mr.Crowley\n4 - Ozzy Interview\n5 - Suicide Solution\n\n\n\n\nFormat                                   : MPEG-4\nFormat profile                           : Base Media\nCodec ID                                 : isom\nFile size                                : 942 MiB\nDuration                                 : 25mn 0s\nOverall bit rate                         : 5 267 Kbps\nWriting application                      : Lavf54.59.106\n\nVideo\nID                                       : 1\nFormat                                   : MPEG-4 Visual\nFormat profile                           : Simple@L3\nFormat settings, BVOP                    : No\nFormat settings, QPel                    : No\nFormat settings, GMC                     : No warppoints\nFormat settings, Matrix                  : Default (H.263)\nCodec ID                                 : 20\nDuration                                 : 25mn 0s\nBit rate mode                            : Variable\nBit rate                                 : 5 022 Kbps\nMaximum bit rate                         : 9 500 Kbps\nWidth                                    : 720 pixels\nHeight                                   : 480 pixels\nDisplay aspect ratio                     : 3:2\nFrame rate mode                          : Constant\nFrame rate                               : 29.970 fps\nStandard                                 : NTSC\nColor space                              : YUV\nChroma subsampling                       : 4:2:0\nBit depth                                : 8 bits\nScan type                                : Progressive\nCompression mode                         : Lossy\nBits/(Pixel*Frame)                       : 0.485\nStream size                              : 898 MiB (95%)\nWriting library                          : XviD 1.1.2 (UTC 2006-11-01)\n\nAudio\nID                                       : 2\nFormat                                   : AAC\nFormat/Info                              : Advanced Audio Codec\nFormat profile                           : LC\nCodec ID                                 : 40\nDuration                                 : 25mn 0s\nBit rate mode                            : Constant\nBit rate                                 : 238 Kbps\nChannel(s)                               : 2 channels\nChannel positions                        : Front: L R\nSampling rate                            : 44.1 KHz\nCompression mode                         : Lossy\nStream size                              : 42.6 MiB (5%)","torrent":{"xt":"urn:btih:e935537f81b9baa7f50e05e3438af3a91164d2bf","amp;dn":"Ozzy+-+After+Hours+4-28-81%28From+30+Years+After+The+Blizzard+DVD%29","amp;tr":["udp%3A%2F%2Ftracker.openbittorrent.com%3A80","udp%3A%2F%2Fopen.demonii.com%3A1337","udp%3A%2F%2Ftracker.coppersurfer.tk%3A6969","udp%3A%2F%2Fexodus.desync.com%3A6969"],"infoHash":"e935537f81b9baa7f50e05e3438af3a91164d2bf","infoHashBuffer":{"type":"Buffer","data":[233,53,83,127,129,185,186,167,245,14,5,227,67,138,243,169,17,100,210,191]},"announce":[],"urlList":[]}}